<svg xmlns="http://www.w3.org/2000/svg" fill="none" viewBox="0 0 48 48"><path stroke-linejoin="round" stroke-linecap="round" stroke-width="2" stroke="#333" fill="#E91E63" d="M4 6a2 2 0 0 1 2-2h36a2 2 0 0 1 2 2v32a2 2 0 0 1-2 2H6a2 2 0 0 1-2-2V6Z" clip-rule="evenodd" fill-rule="evenodd"/><path stroke-linejoin="round" stroke-linecap="round" stroke-width="2" stroke="#333" d="M16 40H8v4h8v-4ZM40 40h-8v4h8v-4Z"/><path stroke-linejoin="round" stroke-linecap="round" stroke-width="2" stroke="#FFF" d="M21 16h6M10 34h2M19 34h10M4 25h40M4 10h40M36 34h2"/><path stroke-linejoin="round" stroke-linecap="round" stroke-width="2" stroke="#333" d="M4 6v8M44 6v8M4 21v8M44 21v8"/></svg>