<svg xmlns="http://www.w3.org/2000/svg" fill="none" viewBox="0 0 48 48"><path stroke-linejoin="round" stroke-width="2" stroke="#333" fill="#E91E63" d="M39.3 6H8.7A2.7 2.7 0 0 0 6 8.7v30.6A2.7 2.7 0 0 0 8.7 42h30.6a2.7 2.7 0 0 0 2.7-2.7V8.7A2.7 2.7 0 0 0 39.3 6Z"/><path stroke-linejoin="round" stroke-linecap="round" stroke-width="2" stroke="#FFF" d="m36 27-7 3M21 33l-7 3"/><path stroke-linejoin="round" stroke-width="2" stroke="#FFF" fill="#E91E63" d="M16 29c2-2.895 3-4.895 3-6a3 3 0 1 0-6 0c0 1.105 1 3.105 3 6ZM32 22c2-2.895 3-4.895 3-6a3 3 0 1 0-6 0c0 1.105 1 3.105 3 6Z"/></svg>