<?xml version="1.0" standalone="no"?><!DOCTYPE svg PUBLIC "-//W3C//DTD SVG 1.1//EN" "http://www.w3.org/Graphics/SVG/1.1/DTD/svg11.dtd"><svg t="1654411804102" class="icon" viewBox="0 0 1024 1024" version="1.1" xmlns="http://www.w3.org/2000/svg" p-id="1254" xmlns:xlink="http://www.w3.org/1999/xlink" width="200" height="200"><defs><style type="text/css">@font-face { font-family: feedback-iconfont; src: url("//at.alicdn.com/t/font_1031158_u69w8yhxdu.woff2?t=1630033759944") format("woff2"), url("//at.alicdn.com/t/font_1031158_u69w8yhxdu.woff?t=1630033759944") format("woff"), url("//at.alicdn.com/t/font_1031158_u69w8yhxdu.ttf?t=1630033759944") format("truetype"); }
</style></defs><path d="M512 85.333333C276.48 85.333333 85.333333 276.48 85.333333 512S276.48 938.666667 512 938.666667 938.666667 747.52 938.666667 512 747.52 85.333333 512 85.333333z m0 796.444445c-203.662222 0-369.777778-166.115556-369.777778-369.777778S308.337778 142.222222 512 142.222222 881.777778 308.337778 881.777778 512 715.662222 881.777778 512 881.777778z" p-id="1255" fill="#1296db"></path><path d="M512 699.733333m-34.133333 0a34.133333 34.133333 0 1 0 68.266666 0 34.133333 34.133333 0 1 0-68.266666 0Z" p-id="1256" fill="#1296db"></path><path d="M512 260.551111c-73.955556 0-133.12 60.302222-133.12 133.12 0 15.928889 12.515556 28.444444 28.444444 28.444445s28.444444-12.515556 28.444445-28.444445a76.231111 76.231111 0 0 1 152.462222 0c0 14.791111-10.24 30.72-31.857778 46.648889-45.511111 35.271111-73.955556 89.884444-73.955555 147.911111v2.275556c0 15.928889 12.515556 28.444444 28.444444 28.444444s28.444444-12.515556 28.444445-28.444444v-2.275556c0-39.822222 19.342222-78.506667 51.2-102.4 36.408889-27.306667 54.613333-58.026667 54.613333-92.16 0-73.955556-59.164444-133.12-133.12-133.12z" p-id="1257" fill="#1296db"></path></svg>