<?xml version="1.0" encoding="UTF-8"?>
<svg width="32px" height="32px" viewBox="0 0 32 32" version="1.1" xmlns="http://www.w3.org/2000/svg" xmlns:xlink="http://www.w3.org/1999/xlink">
    <title>1图标/发起直播/切换摄像头</title>
    <defs>
        <path d="M23.5707684,9.8488942 L22.7240218,7.86841552 C22.2380728,6.73349434 21.0819013,6 19.7787232,6 L12.2213349,6 C10.9194628,6 9.76273987,6.73321954 9.27351112,7.86978951 L8.42809971,9.84886672 L5.65581317,10.2810161 C4.116873,10.5197343 3,11.7555618 3,13.2197475 L3,23.8210105 C3,25.463541 4.42406314,26.8 6.17441422,26.8 L25.824686,26.8 C27.5754725,26.8 29,25.4638433 29,23.8212853 L29,13.2197475 C29,11.7555618 27.883127,10.5197343 26.3443319,10.2810161 L23.5707684,9.8488942 Z M23.4434981,13.8141951 C23.089202,13.4577821 22.5152811,13.4577821 22.160985,13.8141951 L21.6019535,14.3765959 C20.4632835,12.3503529 18.2931872,11.0226875 15.9175428,11.0226875 C13.053134,11.0226875 10.482042,12.9499221 9.66527724,15.7094001 C9.52239203,16.1923256 9.79576919,16.7005068 10.2758263,16.8442457 C10.7567542,16.9879847 11.2610464,16.7129741 11.4039316,16.2303406 C11.9933803,14.2386381 13.8494078,12.8474683 15.9175428,12.8474683 C17.9856778,12.8474683 19.8418504,14.2386381 20.4314442,16.2303406 C20.4361461,16.2461364 20.4435762,16.260268 20.4490037,16.2756258 C20.456579,16.2970567 20.4643574,16.3181081 20.473587,16.3390134 C20.4887085,16.373408 20.5062681,16.405788 20.5251047,16.437438 C20.5340731,16.4525038 20.5418515,16.4679201 20.5517777,16.4825188 C20.5837332,16.5297894 20.6189973,16.5740527 20.658528,16.613878 C20.6588473,16.6141992 20.6590214,16.614608 20.6593988,16.6149291 C20.6614595,16.6170022 20.6639265,16.6182868 20.6659582,16.6203307 C20.703225,16.657061 20.7437425,16.6897329 20.7864369,16.7193099 C20.8019067,16.7300546 20.8178699,16.7391642 20.833804,16.7488577 C20.8648597,16.7676901 20.896641,16.7846538 20.9296994,16.7996613 C20.9478974,16.8078657 20.9659504,16.8159242 20.9845838,16.8229024 C21.0201092,16.8362456 21.0565053,16.8465815 21.093627,16.8554283 C21.1088646,16.8590196 21.1236668,16.8638664 21.1390206,16.8666402 C21.1919603,16.8763629 21.2457128,16.8825236 21.3004231,16.8825236 C21.3517956,16.8825236 21.4037486,16.8764505 21.4557596,16.8672533 C21.471955,16.8644503 21.4877441,16.8603043 21.5037943,16.8565962 C21.5224568,16.852275 21.5410321,16.849764 21.5596656,16.8441873 C21.5727264,16.8402749 21.5839587,16.8333551 21.5967292,16.8288587 C21.6274076,16.8182016 21.6571282,16.8057051 21.6867617,16.7916612 C21.7133767,16.7790479 21.739121,16.7657046 21.7640236,16.7507556 C21.7883167,16.7361569 21.811623,16.7201567 21.8347842,16.703047 C21.8616894,16.6832219 21.8872306,16.6624333 21.9115527,16.6399513 C21.9213628,16.6309001 21.932537,16.6244475 21.9420279,16.6148999 L23.4436142,15.1043418 C23.7978522,14.7482208 23.7978522,14.1702285 23.4435561,13.8141659 L23.4434981,13.8141951 Z M21.7237383,18.3244677 C21.2442906,18.1807288 20.7388085,18.4557393 20.5959232,18.9386648 C20.0066487,20.9303673 18.1504471,22.3212452 16.0823121,22.3212452 C14.014003,22.3212452 12.1578303,20.9300753 11.5685558,18.9386648 C11.5646376,18.92538 11.5576428,18.913993 11.5531731,18.9010001 C11.5426374,18.8702552 11.5302441,18.8403863 11.5163126,18.8106925 C11.5037742,18.78386 11.4904812,18.7579911 11.4755919,18.7328813 C11.461138,18.7085307 11.4452909,18.6852019 11.4283989,18.66199 C11.4085174,18.6346612 11.3876492,18.6087339 11.3650685,18.584062 C11.3561871,18.5743101 11.3498309,18.5631859 11.3404561,18.5537259 C11.3309362,18.5440908 11.3196459,18.5375797 11.3097777,18.5284993 C11.2851944,18.5058713 11.2597403,18.4850244 11.2329512,18.4653453 C11.2102834,18.4486152 11.1874996,18.4328778 11.1637579,18.4185126 C11.1382458,18.4031548 11.1120952,18.3896364 11.085219,18.3769063 C11.0585459,18.3642346 11.0319599,18.3523804 11.0044451,18.3424825 C10.9771916,18.332643 10.9495607,18.3249057 10.9213784,18.3177231 C10.893051,18.3105113 10.8649848,18.3040587 10.836222,18.2996499 C10.8074301,18.2952119 10.7786093,18.2929053 10.7493241,18.291241 C10.7194584,18.289606 10.6899409,18.2889052 10.6600462,18.2901899 C10.6323863,18.291387 10.6049586,18.294336 10.5771536,18.2981608 C10.5443855,18.302628 10.5122269,18.3087595 10.4800393,18.316818 C10.4668624,18.3201465 10.4536565,18.3204677 10.4405086,18.3244093 C10.4276219,18.3282634 10.4165638,18.3350956 10.4039964,18.3395044 C10.3728536,18.3503074 10.3425816,18.3629791 10.3125127,18.3773442 C10.2864491,18.3897532 10.2611982,18.4028336 10.2367891,18.4174615 C10.2120606,18.4322938 10.188348,18.4485276 10.1648385,18.4659584 C10.1381945,18.4856375 10.1128855,18.5062217 10.0887376,18.5285285 C10.0788694,18.5376089 10.0675791,18.5441492 10.0580592,18.5537551 L8.55647291,20.0643132 C8.2021768,20.4204342 8.2021768,20.9983973 8.55647291,21.3544891 C8.73346134,21.532681 8.96568245,21.6218208 9.19772943,21.6218208 C9.4297764,21.6218208 9.66199752,21.5327394 9.83898595,21.3544891 L10.3979884,20.7921467 C11.5367165,22.8184482 13.7068419,24.146026 16.0824282,24.146026 C18.9471272,24.146026 21.5180741,22.2187914 22.3344325,19.4590213 C22.4772307,18.9760959 22.2038535,18.4682066 21.7237963,18.3244677 L21.7237383,18.3244677 Z" id="path-1"></path>
        <filter x="-26.9%" y="-24.0%" width="153.8%" height="167.3%" filterUnits="objectBoundingBox" id="filter-2">
            <feOffset dx="0" dy="2" in="SourceAlpha" result="shadowOffsetOuter1"></feOffset>
            <feGaussianBlur stdDeviation="2" in="shadowOffsetOuter1" result="shadowBlurOuter1"></feGaussianBlur>
            <feColorMatrix values="0 0 0 0 0   0 0 0 0 0   0 0 0 0 0  0 0 0 0.5 0" type="matrix" in="shadowBlurOuter1"></feColorMatrix>
        </filter>
    </defs>
    <g id="1图标/发起直播/切换摄像头" stroke="none" stroke-width="1" fill="none" fill-rule="evenodd">
        <rect id="矩形" fill-opacity="0" fill="#FFFFFF" x="0" y="0" width="32" height="32"></rect>
        <g id="Shape">
            <use fill="black" fill-opacity="1" filter="url(#filter-2)" xlink:href="#path-1"></use>
            <use fill="#FFFFFF" fill-rule="evenodd" xlink:href="#path-1"></use>
        </g>
    </g>
</svg>