<?xml version="1.0" standalone="no"?><!DOCTYPE svg PUBLIC "-//W3C//DTD SVG 1.1//EN" "http://www.w3.org/Graphics/SVG/1.1/DTD/svg11.dtd"><svg t="1661140514346" class="icon" viewBox="0 0 1024 1024" version="1.1" xmlns="http://www.w3.org/2000/svg" p-id="1761" width="24" height="24" xmlns:xlink="http://www.w3.org/1999/xlink"><defs><style type="text/css">@font-face { font-family: feedback-iconfont; src: url("//at.alicdn.com/t/font_1031158_u69w8yhxdu.woff2?t=1630033759944") format("woff2"), url("//at.alicdn.com/t/font_1031158_u69w8yhxdu.woff?t=1630033759944") format("woff"), url("//at.alicdn.com/t/font_1031158_u69w8yhxdu.ttf?t=1630033759944") format("truetype"); }
@font-face { font-family: "Inter var"; font-weight: 100 900; font-display: swap; font-style: normal; src: url("chrome-extension://infppggnoaenmfagbfknfkancpbljcca/Inter-roman-latin.var.woff2") format("woff2"); }
</style></defs><path d="M853.333333 768c46.933333 0 85.333333-38.4 85.333334-85.333333V256c0-46.933333-38.4-85.333333-85.333334-85.333333H170.666667c-46.933333 0-85.333333 38.4-85.333334 85.333333v426.666667a85.333333 85.333333 0 0 0 85.333334 85.333333H42.666667c-23.466667 0-42.666667 19.2-42.666667 42.666667s19.2 42.666667 42.666667 42.666666h938.666666c23.466667 0 42.666667-19.2 42.666667-42.666666s-19.2-42.666667-42.666667-42.666667h-128z m-298.666666-150.613333v-93.44c-118.613333 0-196.693333 36.266667-256 116.053333 23.893333-113.92 90.026667-227.413333 256-250.453333V298.666667l154.026666 143.36c8.96 8.533333 8.96 22.613333 0 31.146666L554.666667 617.386667z" p-id="1762"></path></svg>