<?xml version="1.0" standalone="no"?><!DOCTYPE svg PUBLIC "-//W3C//DTD SVG 1.1//EN" "http://www.w3.org/Graphics/SVG/1.1/DTD/svg11.dtd"><svg t="1660120719022" class="icon" viewBox="0 0 1024 1024" version="1.1" xmlns="http://www.w3.org/2000/svg" p-id="15626" xmlns:xlink="http://www.w3.org/1999/xlink" width="32" height="32"><defs><style type="text/css">@font-face { font-family: feedback-iconfont; src: url("//at.alicdn.com/t/font_1031158_u69w8yhxdu.woff2?t=1630033759944") format("woff2"), url("//at.alicdn.com/t/font_1031158_u69w8yhxdu.woff?t=1630033759944") format("woff"), url("//at.alicdn.com/t/font_1031158_u69w8yhxdu.ttf?t=1630033759944") format("truetype"); }
@font-face { font-family: "Inter var"; font-weight: 100 900; font-display: swap; font-style: normal; src: url("chrome-extension://infppggnoaenmfagbfknfkancpbljcca/Inter-roman-latin.var.woff2") format("woff2"); }
</style></defs><path d="M853.333333 128H170.666667a85.333333 85.333333 0 0 0-85.333334 85.333333v512a85.333333 85.333333 0 0 0 85.333334 85.333334h217.173333a42.666667 42.666667 0 0 1 29.866667 12.373333l63.573333 63.573333a32 32 0 0 0 22.613333 9.386667h16.213334a32 32 0 0 0 22.613333-9.386667l63.573333-63.573333a42.666667 42.666667 0 0 1 29.866667-12.373333H853.333333a85.333333 85.333333 0 0 0 85.333334-85.333334V213.333333a85.333333 85.333333 0 0 0-85.333334-85.333333zM405.333333 256A64 64 0 1 1 341.333333 320 64 64 0 0 1 405.333333 256z m405.333334 405.333333a21.333333 21.333333 0 0 1-21.333334 21.333334h-554.666666a21.333333 21.333333 0 0 1-21.333334-21.333334v-14.506666a19.626667 19.626667 0 0 1 4.693334-12.8L341.333333 477.44a22.186667 22.186667 0 0 1 14.933334-8.106667 21.333333 21.333333 0 0 1 16.64 7.68l61.866666 74.666667a20.906667 20.906667 0 0 0 16.213334 7.68 21.76 21.76 0 0 0 17.066666-8.533333l122.88-158.72a21.76 21.76 0 0 1 34.133334 0l181.333333 241.92a21.76 21.76 0 0 1 4.266667 12.8z" p-id="15627"></path></svg>