<?xml version="1.0" standalone="no"?><!DOCTYPE svg PUBLIC "-//W3C//DTD SVG 1.1//EN" "http://www.w3.org/Graphics/SVG/1.1/DTD/svg11.dtd"><svg t="1660041661875" class="icon" viewBox="0 0 1024 1024" version="1.1" xmlns="http://www.w3.org/2000/svg" p-id="15318" xmlns:xlink="http://www.w3.org/1999/xlink" width="32" height="32"><defs><style type="text/css">@font-face { font-family: feedback-iconfont; src: url("//at.alicdn.com/t/font_1031158_u69w8yhxdu.woff2?t=1630033759944") format("woff2"), url("//at.alicdn.com/t/font_1031158_u69w8yhxdu.woff?t=1630033759944") format("woff"), url("//at.alicdn.com/t/font_1031158_u69w8yhxdu.ttf?t=1630033759944") format("truetype"); }
@font-face { font-family: "Inter var"; font-weight: 100 900; font-display: swap; font-style: normal; src: url("chrome-extension://infppggnoaenmfagbfknfkancpbljcca/Inter-roman-latin.var.woff2") format("woff2"); }
</style></defs><path d="M341.333333 426.666667V256a170.666667 170.666667 0 0 1 341.333334 0v170.666667a170.666667 170.666667 0 0 1-341.333334 0z m472.746667 147.2a16.64 16.64 0 0 0-9.386667-10.666667l-44.8-20.906667a17.92 17.92 0 0 0-23.466666 7.68A256 256 0 0 1 288.853333 554.666667a20.906667 20.906667 0 0 0-27.306666-8.96l-38.826667 17.92a20.48 20.48 0 0 0-11.093333 12.8 21.76 21.76 0 0 0 0 17.066666 341.333333 341.333333 0 0 0 256 173.653334V853.333333H405.333333a21.333333 21.333333 0 0 0-21.333333 21.333334v42.666666a21.333333 21.333333 0 0 0 21.333333 21.333334h213.333334a21.333333 21.333333 0 0 0 21.333333-21.333334v-42.666666a21.333333 21.333333 0 0 0-21.333333-21.333334H554.666667v-88.32a341.333333 341.333333 0 0 0 256-173.653333v-3.413333a16.213333 16.213333 0 0 0 3.413333-14.08z" p-id="15319"></path></svg>