<?xml version="1.0" standalone="no"?><!DOCTYPE svg PUBLIC "-//W3C//DTD SVG 1.1//EN" "http://www.w3.org/Graphics/SVG/1.1/DTD/svg11.dtd"><svg t="1660041667194" class="icon" viewBox="0 0 1024 1024" version="1.1" xmlns="http://www.w3.org/2000/svg" p-id="15472" xmlns:xlink="http://www.w3.org/1999/xlink" width="32" height="32"><defs><style type="text/css">@font-face { font-family: feedback-iconfont; src: url("//at.alicdn.com/t/font_1031158_u69w8yhxdu.woff2?t=1630033759944") format("woff2"), url("//at.alicdn.com/t/font_1031158_u69w8yhxdu.woff?t=1630033759944") format("woff"), url("//at.alicdn.com/t/font_1031158_u69w8yhxdu.ttf?t=1630033759944") format("truetype"); }
@font-face { font-family: "Inter var"; font-weight: 100 900; font-display: swap; font-style: normal; src: url("chrome-extension://infppggnoaenmfagbfknfkancpbljcca/Inter-roman-latin.var.woff2") format("woff2"); }
</style></defs><path d="M889.6 866.986667l-22.613333 22.613333a20.48 20.48 0 0 1-29.866667 0L673.706667 725.333333a333.653333 333.653333 0 0 1-119.04 38.4V853.333333h64a21.333333 21.333333 0 0 1 21.333333 21.333334v42.666666a21.333333 21.333333 0 0 1-21.333333 21.333334h-213.333334a21.333333 21.333333 0 0 1-21.333333-21.333334v-42.666666a21.333333 21.333333 0 0 1 21.333333-21.333334H469.333333v-88.32a343.893333 343.893333 0 0 1-256-173.653333 23.893333 23.893333 0 0 1 0-17.066667 22.613333 22.613333 0 0 1 11.52-12.8l38.4-17.92a20.906667 20.906667 0 0 1 27.733334 8.533334 256 256 0 0 0 320.853333 110.506666l-68.266667-68.266666A163.84 163.84 0 0 1 512 597.333333a170.666667 170.666667 0 0 1-170.666667-170.666666v-32.426667L134.4 186.88a20.48 20.48 0 0 1 0-29.866667l22.613333-22.613333a20.48 20.48 0 0 1 29.866667 0l702.72 702.72a20.48 20.48 0 0 1 0 29.866667zM682.666667 426.666667V256a170.666667 170.666667 0 0 0-170.666667-170.666667 170.666667 170.666667 0 0 0-158.72 109.653334l310.186667 310.186666A168.106667 168.106667 0 0 0 682.666667 426.666667z m128 164.693333a23.893333 23.893333 0 0 0 0-17.066667 22.613333 22.613333 0 0 0-11.52-12.8l-38.4-17.92a20.906667 20.906667 0 0 0-27.733334 8.533334c-2.986667 5.12-5.973333 10.24-9.386666 15.36l61.013333 61.013333a308.906667 308.906667 0 0 0 26.026667-37.12z" p-id="15473"></path></svg>