<?xml version="1.0" standalone="no"?><!DOCTYPE svg PUBLIC "-//W3C//DTD SVG 1.1//EN" "http://www.w3.org/Graphics/SVG/1.1/DTD/svg11.dtd"><svg t="1660041445819" class="icon" viewBox="0 0 1024 1024" version="1.1" xmlns="http://www.w3.org/2000/svg" p-id="14856" xmlns:xlink="http://www.w3.org/1999/xlink" width="32" height="32"><defs><style type="text/css">@font-face { font-family: feedback-iconfont; src: url("//at.alicdn.com/t/font_1031158_u69w8yhxdu.woff2?t=1630033759944") format("woff2"), url("//at.alicdn.com/t/font_1031158_u69w8yhxdu.woff?t=1630033759944") format("woff"), url("//at.alicdn.com/t/font_1031158_u69w8yhxdu.ttf?t=1630033759944") format("truetype"); }
@font-face { font-family: "Inter var"; font-weight: 100 900; font-display: swap; font-style: normal; src: url("chrome-extension://infppggnoaenmfagbfknfkancpbljcca/Inter-roman-latin.var.woff2") format("woff2"); }
</style></defs><path d="M874.666667 298.666667h-3.84a42.666667 42.666667 0 0 0-29.866667 12.373333L725.333333 426.666667V341.333333a85.333333 85.333333 0 0 0-85.333333-85.333333H213.333333a85.333333 85.333333 0 0 0-85.333333 85.333333v341.333334a85.333333 85.333333 0 0 0 85.333333 85.333333h426.666667a85.333333 85.333333 0 0 0 85.333333-85.333333v-85.333334l115.626667 115.626667a42.666667 42.666667 0 0 0 29.866667 12.373333h3.84a21.333333 21.333333 0 0 0 21.333333-21.333333v-384a21.333333 21.333333 0 0 0-21.333333-21.333333zM409.173333 405.333333a96 96 0 0 0-78.506666 94.293334h34.56a10.666667 10.666667 0 0 1 8.96 16.64l-65.706667 98.133333a10.24 10.24 0 0 1-17.493333 0l-65.706667-98.133333a10.666667 10.666667 0 0 1 8.96-16.64h32.426667A160 160 0 0 1 401.493333 341.333333a21.333333 21.333333 0 0 1 25.173334 21.333334V384a21.333333 21.333333 0 0 1-17.493334 21.333333z m209.92 119.04h-32.426666A160 160 0 0 1 451.84 682.666667a21.333333 21.333333 0 0 1-25.173333-21.333334V640a21.333333 21.333333 0 0 1 17.493333-20.906667 96 96 0 0 0 78.506667-94.293333h-34.56a10.666667 10.666667 0 0 1-8.96-16.64l65.706666-98.133333a10.24 10.24 0 0 1 17.493334 0l65.706666 98.133333a10.666667 10.666667 0 0 1-8.96 16.213333z" p-id="14857"></path></svg>