<?xml version="1.0" standalone="no"?><!DOCTYPE svg PUBLIC "-//W3C//DTD SVG 1.1//EN" "http://www.w3.org/Graphics/SVG/1.1/DTD/svg11.dtd"><svg t="1660041464937" class="icon" viewBox="0 0 1024 1024" version="1.1" xmlns="http://www.w3.org/2000/svg" p-id="15010" xmlns:xlink="http://www.w3.org/1999/xlink" width="32" height="32"><defs><style type="text/css">@font-face { font-family: feedback-iconfont; src: url("//at.alicdn.com/t/font_1031158_u69w8yhxdu.woff2?t=1630033759944") format("woff2"), url("//at.alicdn.com/t/font_1031158_u69w8yhxdu.woff?t=1630033759944") format("woff"), url("//at.alicdn.com/t/font_1031158_u69w8yhxdu.ttf?t=1630033759944") format("truetype"); }
@font-face { font-family: "Inter var"; font-weight: 100 900; font-display: swap; font-style: normal; src: url("chrome-extension://infppggnoaenmfagbfknfkancpbljcca/Inter-roman-latin.var.woff2") format("woff2"); }
</style></defs><path d="M917.333333 298.666667h-3.84a42.666667 42.666667 0 0 0-29.866666 12.373333L768 426.666667V298.666667a85.333333 85.333333 0 0 0-85.333333-85.333334H170.666667a85.333333 85.333333 0 0 0-85.333334 85.333334v426.666666a85.333333 85.333333 0 0 0 85.333334 85.333334h512a85.333333 85.333333 0 0 0 85.333333-85.333334v-128l115.626667 115.626667a42.666667 42.666667 0 0 0 29.866666 12.373333h3.84a21.333333 21.333333 0 0 0 21.333334-21.333333v-384a21.333333 21.333333 0 0 0-21.333334-21.333333z m-682.666666 165.546666a21.333333 21.333333 0 0 1-21.333334-21.333333v-32.426667a21.333333 21.333333 0 0 1 21.333334-21.333333h170.666666a21.333333 21.333333 0 0 1 21.333334 21.333333v32.426667a21.333333 21.333333 0 0 1-21.333334 21.333333z" p-id="15011"></path></svg>